<svg width="27" height="27" viewBox="0 0 27 27" fill="none" xmlns="http://www.w3.org/2000/svg">
<circle cx="13.4722" cy="13.5" r="12.5" stroke="white"/>
<path d="M22.9722 13.5C22.9722 16.9891 21.8837 20.1297 20.1469 22.3875C18.4105 24.6448 16.0463 26 13.4722 26C10.898 26 8.53381 24.6448 6.79741 22.3875C5.0606 20.1297 3.97217 16.9891 3.97217 13.5C3.97217 10.0109 5.0606 6.87033 6.79741 4.61247C8.53381 2.35515 10.898 1 13.4722 1C16.0463 1 18.4105 2.35515 20.1469 4.61247C21.8837 6.87033 22.9722 10.0109 22.9722 13.5Z" stroke="white"/>
<path d="M16.9722 13.5C16.9722 17.0543 16.5282 20.2524 15.8227 22.5453C15.469 23.6949 15.058 24.5888 14.6248 25.1843C14.1836 25.7907 13.7878 26 13.4722 26C13.1565 26 12.7607 25.7907 12.3195 25.1843C11.8863 24.5888 11.4753 23.6949 11.1216 22.5453C10.4161 20.2524 9.97217 17.0543 9.97217 13.5C9.97217 9.94574 10.4161 6.74762 11.1216 4.45465C11.4753 3.30511 11.8863 2.41125 12.3195 1.81574C12.7607 1.20929 13.1565 1 13.4722 1C13.7878 1 14.1836 1.20929 14.6248 1.81574C15.058 2.41125 15.469 3.30511 15.8227 4.45465C16.5282 6.74762 16.9722 9.94574 16.9722 13.5Z" stroke="white"/>
<path d="M4.47217 22C4.47217 22 8.47217 20.5 13.4722 20.5C18.4722 20.5 22.4722 22 22.4722 22" stroke="white"/>
<path d="M4.47217 4.5C4.47217 4.5 8.47217 6 13.4722 6C18.4722 6 22.4722 4.5 22.4722 4.5" stroke="white"/>
<path d="M0.472168 14H25.9722" stroke="white"/>
</svg>
